<svg width="1513" height="1053" viewBox="0 0 1513 1053" fill="none" xmlns="http://www.w3.org/2000/svg">
<g filter="url(#filter0_d_169_34)">
<circle cx="756.671" cy="526.671" r="384.671" fill="#1783FF" stroke="white" stroke-width="12"/>
<path d="M516.509 722.428C528.377 729.304 543.285 728.699 556.37 728.596L556.372 728.596L558.435 728.587C571.949 728.493 585.291 726.926 598.474 723.374C599.356 723.137 600.242 722.899 601.151 722.655C634.16 713.328 664.375 696.343 688.952 668.244L688.954 668.242C689.707 667.392 690.461 666.541 691.236 665.666C719.59 632.668 735.418 585.261 751.492 542.671C770.169 493.189 789.503 444.303 820.911 404.221C822.053 402.763 823.187 401.296 824.322 399.827L824.326 399.822C844.115 374.945 872.506 353.467 902.042 352.343L902.054 352.342C903.245 352.324 904.436 352.31 905.627 352.3L909.201 352.282C911.053 352.272 911.054 352.272 912.945 352.262L912.945 352.261L912.951 352.262C921.814 352.307 930.121 353.117 938.743 355.81L940.348 356.313L938.73 356.77C938.146 356.935 937.552 357.103 936.95 357.273L936.949 357.272C918.088 362.661 900.685 369.445 883.689 380.538L883.687 380.54C883.126 380.902 882.565 381.263 881.987 381.636C870.495 389.096 859.932 397.812 850.423 408.529C848.548 410.637 846.625 412.624 844.667 414.601L844.666 414.601C827.549 432.692 815.135 456.748 803.878 480.312L803.877 480.313C803.515 481.068 803.153 481.822 802.78 482.6L802.779 482.599C794.737 499.458 787.856 516.979 781.37 534.767L780.077 538.328C775.53 550.883 770.733 563.304 765.938 575.719C765.17 577.71 764.403 579.702 763.637 581.695L763.637 581.696C747.848 622.681 731.08 662.229 700.512 690.305C700.984 690.486 701.353 690.623 701.666 690.719C702.12 690.858 702.42 690.903 702.701 690.889C702.988 690.875 703.294 690.798 703.763 690.634C704.259 690.461 704.803 690.242 705.684 689.926L705.684 689.925C706.712 689.558 707.74 689.191 708.799 688.813C710.456 688.201 710.458 688.201 712.148 687.575L712.15 687.574C713.289 687.156 714.429 686.739 715.602 686.308C746.052 674.951 775.353 659.335 801.349 637.277L801.353 637.274C801.89 636.827 802.428 636.379 802.981 635.918C817.35 623.873 830.576 607.653 840.312 590.225L840.313 590.222C840.922 589.151 840.922 589.151 841.542 588.06C855.448 563.32 865.667 535.708 876.34 508.785C879.273 501.387 882.258 494.021 885.279 486.676L888.313 479.338C888.712 478.374 889.111 477.411 889.523 476.417L889.524 476.416C906.487 435.757 932.07 398.052 968.571 381.333C969.972 380.688 969.971 380.689 971.402 380.031L971.409 380.027L971.418 380.024C980.58 376.216 990.146 374.845 999.651 373.395C985.292 356.553 969.344 342.405 952.186 329.782L952.185 329.781L950.433 328.49C917.487 304.588 875.527 296.996 838.032 307.157C812.733 314.526 789.711 327.666 769.099 346.611L769.096 346.614C768.568 347.09 768.04 347.565 767.496 348.057L767.497 348.058C758.471 356.222 750.243 365.235 742.129 374.682L742.127 374.684C741.321 375.611 740.514 376.538 739.683 377.493L739.684 377.494C735.3 382.641 731.393 388.104 727.575 393.877L727.574 393.878C725.417 397.117 723.187 400.266 720.954 403.418C691.709 445.906 673.233 497.682 655.728 548.145C644.651 580.068 632.481 613.739 615.973 642.975C599.463 672.212 578.591 697.059 550.084 711.29L550.074 711.294C539.178 716.438 527.874 719.46 516.509 722.428Z" fill="white" stroke="white"/>
</g>
<defs>
<filter id="filter0_d_169_34" x="362" y="136" width="789.342" height="789.342" filterUnits="userSpaceOnUse" color-interpolation-filters="sRGB">
<feFlood flood-opacity="0" result="BackgroundImageFix"/>
<feColorMatrix in="SourceAlpha" type="matrix" values="0 0 0 0 0 0 0 0 0 0 0 0 0 0 0 0 0 0 127 0" result="hardAlpha"/>
<feOffset dy="4"/>
<feGaussianBlur stdDeviation="2"/>
<feComposite in2="hardAlpha" operator="out"/>
<feColorMatrix type="matrix" values="0 0 0 0 0 0 0 0 0 0 0 0 0 0 0 0 0 0 0.25 0"/>
<feBlend mode="normal" in2="BackgroundImageFix" result="effect1_dropShadow_169_34"/>
<feBlend mode="normal" in="SourceGraphic" in2="effect1_dropShadow_169_34" result="shape"/>
</filter>
</defs>
</svg>
